<svg width="50" height="50" viewBox="0 0 50 50" fill="none" xmlns="http://www.w3.org/2000/svg">
<g clip-path="url(#clip0_65_93)">
<rect width="50" height="50" rx="25" fill="#004CE1"/>
<path fill-rule="evenodd" clip-rule="evenodd" d="M23.678 14.7405C24.3736 14.0448 25.5014 14.0448 26.197 14.7405L35.697 24.2405C36.3927 24.9361 36.3927 26.0639 35.697 26.7595L26.197 36.2595C25.5014 36.9552 24.3736 36.9552 23.678 36.2595C22.9823 35.5639 22.9823 34.4361 23.678 33.7405L31.9184 25.5L23.678 17.2595C22.9823 16.5639 22.9823 15.4361 23.678 14.7405Z" fill="white"/>
<path fill-rule="evenodd" clip-rule="evenodd" d="M17.6931 17.0056C18.2423 16.4565 19.1327 16.4565 19.6819 17.0056L27.1819 24.5056C27.731 25.0548 27.731 25.9452 27.1819 26.4944L19.6819 33.9944C19.1327 34.5435 18.2423 34.5435 17.6931 33.9944C17.144 33.4452 17.144 32.5548 17.6931 32.0056L24.1988 25.5L17.6931 18.9944C17.144 18.4452 17.144 17.5548 17.6931 17.0056Z" fill="white"/>
</g>
<defs>
<clipPath id="clip0_65_93">
<rect width="50" height="50" rx="25" fill="white"/>
</clipPath>
</defs>
</svg>
