<svg width="50" height="50" viewBox="0 0 50 50" fill="none" xmlns="http://www.w3.org/2000/svg">
<g clip-path="url(#clip0_65_103)">
<rect x="50" y="50" width="50" height="50" rx="25" transform="rotate(-180 50 50)" fill="#004CE1"/>
<path fill-rule="evenodd" clip-rule="evenodd" d="M26.322 35.2595C25.6264 35.9552 24.4986 35.9552 23.803 35.2595L14.303 25.7595C13.6073 25.0639 13.6073 23.9361 14.303 23.2405L23.803 13.7405C24.4986 13.0448 25.6264 13.0448 26.322 13.7405C27.0177 14.4361 27.0177 15.5639 26.322 16.2595L18.0816 24.5L26.322 32.7405C27.0177 33.4361 27.0177 34.5639 26.322 35.2595Z" fill="white"/>
<path fill-rule="evenodd" clip-rule="evenodd" d="M32.3069 32.9944C31.7577 33.5435 30.8673 33.5435 30.3181 32.9944L22.8181 25.4944C22.269 24.9452 22.269 24.0548 22.8181 23.5056L30.3181 16.0056C30.8673 15.4565 31.7577 15.4565 32.3069 16.0056C32.856 16.5548 32.856 17.4452 32.3069 17.9944L25.8012 24.5L32.3069 31.0056C32.856 31.5548 32.856 32.4452 32.3069 32.9944Z" fill="white"/>
</g>
<defs>
<clipPath id="clip0_65_103">
<rect x="50" y="50" width="50" height="50" rx="25" transform="rotate(-180 50 50)" fill="white"/>
</clipPath>
</defs>
</svg>
