<svg width="1280" height="207" viewBox="0 0 1280 207" fill="none" xmlns="http://www.w3.org/2000/svg">
<mask id="mask0_57_34" style="mask-type:alpha" maskUnits="userSpaceOnUse" x="0" y="0" width="1280" height="207">
<rect width="1280" height="207" rx="20" fill="#2563EB"/>
</mask>
<g mask="url(#mask0_57_34)">
<path opacity="0.2" d="M126.507 -83.6995C153.291 -33.1436 125.669 35.8977 62.8441 70.0195C0.019184 104.141 -72.068 89.2552 -98.8525 38.6993C-125.637 -11.8567 -98.0145 -80.8979 -35.1896 -115.02C27.6353 -149.142 99.7225 -134.255 126.507 -83.6995Z" stroke="#F1F5F9" stroke-width="7"/>
<path d="M1402.92 239.5C1402.92 300.236 1343.64 350.5 1269.14 350.5C1194.63 350.5 1135.35 300.236 1135.35 239.5C1135.35 178.764 1194.63 128.5 1269.14 128.5C1343.64 128.5 1402.92 178.764 1402.92 239.5Z" stroke="#767778" stroke-width="7"/>
</g>
</svg>
