<svg width="35" height="35" viewBox="0 0 35 35" fill="none" xmlns="http://www.w3.org/2000/svg">
<path fill-rule="evenodd" clip-rule="evenodd" d="M10.573 14.5834C10.573 10.7577 13.6744 7.65633 17.5001 7.65633C21.3258 7.65633 24.4272 10.7577 24.4272 14.5834C24.4272 18.4091 21.3258 21.5105 17.5001 21.5105C13.6744 21.5105 10.573 18.4091 10.573 14.5834ZM17.5001 9.84383C14.8825 9.84383 12.7605 11.9658 12.7605 14.5834C12.7605 17.201 14.8825 19.323 17.5001 19.323C20.1177 19.323 22.2397 17.201 22.2397 14.5834C22.2397 11.9658 20.1177 9.84383 17.5001 9.84383Z" fill="#004CE1"/>
<path fill-rule="evenodd" clip-rule="evenodd" d="M5.13981 12.9163C5.65654 6.64752 10.8951 1.823 17.1852 1.823H17.8151C24.1051 1.823 29.3437 6.64752 29.8604 12.9163C30.138 16.2838 29.0978 19.6276 26.9589 22.2434L19.969 30.7919C18.693 32.3524 16.3072 32.3524 15.0312 30.7919L8.04131 22.2434C5.90244 19.6276 4.86224 16.2838 5.13981 12.9163ZM17.1852 4.0105C12.0335 4.0105 7.74312 7.96182 7.31992 13.096C7.0889 15.8987 7.95463 18.6817 9.73476 20.8587L16.7246 29.4072C17.1254 29.8973 17.8748 29.8973 18.2756 29.4072L25.2655 20.8587C27.0456 18.6817 27.9113 15.8987 27.6803 13.096C27.2571 7.96182 22.9667 4.0105 17.8151 4.0105H17.1852Z" fill="#004CE1"/>
</svg>
